<svg xmlns="http://www.w3.org/2000/svg" viewBox="0 0 512 512">
<path d="M256 21.52c-43.2 0-86.4 6.12-119.26 18.38C103.88 52.16 82 70.4 82 93.3c0 4.32.74 8.58 2.24 12.7-1.5 4.14-2.24 8.4-2.24 12.7v45.66c0 22.92 21.88 41.15 54.74 53.42 32.87 12.26 76.06 18.37 119.26 18.37s86.4-6.1 119.26-18.36c32.86-12.26 54.74-30.5 54.74-53.4v-45.7c0-4.3-.75-8.56-2.24-12.7 1.5-4.12 2.24-8.38 2.24-12.7 0-22.9-21.88-41.14-54.74-53.4-32.87-12.27-76.06-18.4-119.26-18.4zm0 18.48c39.32 0 78.65 5.52 106.96 16.23 28.32 10.72 39.74 24.17 39.74 37.07 0 12.9-11.43 26.35-39.74 37.07-28.3 10.7-67.64 16.22-106.96 16.22-39.32 0-78.65-5.52-106.96-16.22-28.32-10.72-39.74-24.17-39.74-37.08 0-12.9 11.43-26.35 39.74-37.07 28.3-10.7 67.64-16.23 106.96-16.23zm174.7 72.46v45.66c0 12.9-11.43 26.35-39.74 37.07-28.3 10.7-67.64 16.23-106.96 16.23-39.32 0-78.65-5.53-106.96-16.24-28.32-10.72-39.74-24.17-39.74-37.07V112.3c12.07 9.23 27.92 16.9 46.3 22.93 32.87 10.8 76.07 16.23 119.27 16.23s86.4-5.44 119.26-16.23c18.38-6.03 34.23-13.7 46.3-22.93 6.04-4.62 9.74-8.98 12.3-12.92zM84 186.6v45.67c0 4.32.74 8.58 2.24 12.7-1.5 4.14-2.24 8.4-2.24 12.7v45.7c0 22.9 21.88 41.13 54.74 53.4 32.87 12.26 76.06 18.37 119.26 18.37s86.4-6.1 119.26-18.36c32.86-12.26 54.74-30.5 54.74-53.4v-45.7c0-4.3-.75-8.56-2.24-12.7 1.5-4.13 2.24-8.4 2.24-12.7V186.6c-12.07 9.23-27.92 16.9-46.3 22.93-32.87 10.8-76.07 16.23-119.27 16.23s-86.4-5.44-119.26-16.23c-18.38-6.03-34.23-13.7-46.3-22.93-.85.65-1.67 1.3-2.47 1.97-3.42 2.9-6.36 5.87-8.4 8.7zm174.7 47.52v45.66c0 12.9-11.43 26.35-39.74 37.07-28.3 10.7-67.64 16.23-106.96 16.23-39.32 0-78.65-5.53-106.96-16.24-28.32-10.72-39.74-24.17-39.74-37.07v-45.66c12.07 9.23 27.92 16.9 46.3 22.93 32.87 10.8 76.07 16.23 119.27 16.23s86.4-5.44 119.26-16.23c18.38-6.03 34.23-13.7 46.3-22.93 6.04-4.62 9.74-8.98 12.3-12.92zM84 303.3v45.68c0 4.3.74 8.57 2.24 12.7-1.5 4.12-2.24 8.38-2.24 12.7 0 22.9 21.88 41.13 54.74 53.4 32.87 12.25 76.06 18.37 119.26 18.37s86.4-6.12 119.26-18.38c32.86-12.26 54.74-30.5 54.74-53.4 0-4.32-.75-8.58-2.24-12.7 1.5-4.14 2.24-8.38 2.24-12.7V303.3c-12.07 9.24-27.92 16.9-46.3 22.94-32.87 10.8-76.07 16.23-119.27 16.23s-86.4-5.44-119.26-16.23c-18.38-6.03-34.23-13.7-46.3-22.93-.85.65-1.67 1.3-2.47 1.97-3.42 2.9-6.36 5.87-8.4 8.7zm174.7 47.53c39.32 0 78.65 5.52 106.96 16.23 28.32 10.7 39.74 24.16 39.74 37.06 0 12.9-11.43 26.35-39.74 37.07-28.3 10.7-67.64 16.23-106.96 16.23-39.32 0-78.65-5.52-106.96-16.23-28.32-10.72-39.74-24.17-39.74-37.07 0-12.9 11.43-26.35 39.74-37.06 28.3-10.7 67.64-16.23 106.96-16.23z" fill="#e6b422"/>
</svg> 