<svg xmlns="http://www.w3.org/2000/svg" viewBox="0 0 512 512">
<path d="M256 16c-15.46 0-28 12.54-28 28 0 8.854 4.148 16.606 10.53 21.756-13.38 10.1-26.93 20.5-32.53 32.244-5.65-5.402-11.04-11.08-13.13-17.4-2.9-8.798-1.4-19.7-8.5-27.2-7.1-7.5-18.5-10.2-28.3-7.8-9.8 2.4-17.8 10.4-20.3 20.1-2.5 9.7.1 20.2 6.4 27.5 4.2 4.9 10.4 7.6 16.9 9 6.4 1.4 12.7 1.6 17.4 3.8 4.7 2.2 7.6 7.2 16.9 17 7.3 7.7 19.8 22.7 31.6 34.9-8.7 16-13.3 33.2-8.5 45.3-5.6-1.6-11-3.8-15.4-7.8-9.1-8.162-13.2-22.062-29-23.962-8.2-1-17.7 1.6-24.4 8.3-6.7 6.7-9.2 16.6-8 25 1.2 8.4 6.1 15.3 13.1 19.5 7 4.2 15.4 5.6 23.8 6.1 5 .4 10 .3 13.8 1.3 3.8 1 6.4 2.9 11.9 7.1-3.3 10.8-6.6 21.7-6.6 21.7l-14.002 3.2c-9.777 2.3-17.2 10.1-19.1 20-.3 1.5-.484 2.9-.498 4.4H404.1c-.114-5.1-1.5-10.3-4.4-14.6-4.9-7.2-13.1-11.5-21.7-12.5-.5-.1-4-1-14.5-3.3-2.1-7.1-4.4-14.1-6.6-21.1 5.7-4.3 8.2-6.1 12.1-7.1 3.9-1 8.9-.9 13.9-1.3 8.4-.5 16.8-1.9 23.8-6.1 7-4.2 11.9-11.1 13.1-19.5 1.2-8.4-1.3-18.3-8-25-6.7-6.7-16.2-9.3-24.4-8.3-15.8 1.9-19.9 15.8-29 23.962-4.2 3.8-9.1 5.9-14.5 7.5 4.6-12.2-.007-29.2-8.707-45.2 11.707-12.1 24.007-26.9 31.207-34.5 9.3-9.8 12.2-14.8 16.9-17 4.7-2.2 11-2.4 17.4-3.8 6.5-1.4 12.7-4.1 16.9-9 6.3-7.3 8.9-17.8 6.4-27.5-2.5-9.7-10.5-17.7-20.3-20.1-9.8-2.4-21.2.3-28.3 7.8-7.1 7.5-5.6 18.402-8.5 27.2-2.1 6.5-7.5 12.3-13.3 17.7-5.6-11.7-19.2-22.1-32.5-32.244C280.1 60.805 284 53.152 284 44.4c0-15.46-12.54-28-28-28zm0 18c5.54 0 10 4.46 10 10s-4.46 10-10 10-10-4.46-10-10 4.46-10 10-10zM130.8 78c3-.1 5.9.7 8.2 2.1 4.5 2.9 6 6.4 7.2 10.8 1.1 4.4 1.5 9.4 3.7 14.1 2.2 4.7 6.1 8.8 10.2 12.8 4.1 4 8.8 7.8 12.4 12 3.6 4.2 7 8.1 6.8 14.6-.1 6.5-3.8 14.7-8.3 22-4.5 7.3-10.3 13.9-13.5 18.9-3.2 5-3.5 8.4-2.4 11.7 1.1 3.3 3.5 6.3 7.2 10.3 3.7 4 8.9 8.7 13.3 14.9 4.4 6.2 7.4 14.1 4.4 23.7-1.7 5.3-5.9 9.8-11.1 10.9-5.2 1.1-10.8-1.5-15.1-3.6-4.3-2.1-7.9-3.9-11.5-3.9-3.6 0-6.2 1.6-10.2 3.5-4 1.9-9.6 4-13.7 2.9-4.1-1.1-7.1-4.7-8.8-9.1-3.4-8.7-.9-16.3 3-22.3 3.9-6 9.3-10.9 13-14.9 3.7-4 5.8-7.4 6.8-10.3 1-2.9 1.1-5.1-1.6-10.1-2.7-5-7.9-11.7-13-18.8-5.1-7.1-10.1-14.5-11.5-21.8-1.4-7.3.6-14.1 4.3-19.2 3.7-5.1 8.6-8.6 14.6-10.2zM381.4 78c5.9 1.6 10.9 5.1 14.6 10.2 3.7 5.1 5.7 11.9 4.3 19.2-1.4 7.3-6.4 14.7-11.5 21.8-5.1 7.1-10.3 13.8-13 18.8-2.7 5-2.6 7.2-1.6 10.1 1 2.9 3.1 6.3 6.8 10.3 3.7 4 9.1 8.9 13 14.9 3.9 6 6.4 13.6 3 22.3-1.7 4.4-4.7 8-8.8 9.1-4.1 1.1-9.7-1-13.7-2.9-4-1.9-6.6-3.5-10.2-3.5s-7.2 1.8-11.5 3.9c-4.3 2.1-9.9 4.7-15.1 3.6-5.2-1.1-9.4-5.6-11.1-10.9-3-9.6 0-17.5 4.4-23.7 4.4-6.2 9.6-10.9 13.3-14.9 3.7-4 6.1-7 7.2-10.3 1.1-3.3.8-6.7-2.4-11.7-3.2-5-9-11.6-13.5-18.9-4.5-7.3-8.2-15.5-8.3-22-.2-6.5 3.2-10.4 6.8-14.6 3.6-4.2 8.3-8 12.4-12 4.1-4 8-8.1 10.2-12.8 2.2-4.7 2.6-9.7 3.7-14.1 1.2-4.4 2.7-7.9 7.2-10.8 2.2-1.4 5.1-2.2 8.1-2.1zm-117.5 134.9c1.8 2.8 3.652 5.72 5.52 8.82-3.13-1.19-6.35-1.82-9.72-1.82-3.21 0-6.3.58-9.3 1.68 1.768-2.96 3.517-5.75 5.217-8.45 2.707-.28 5.477-.28 8.283-.23zM108.5 370.7l12 1.4 8.2 12.6 87.4-13.1c4.5-1.1 9.2 1.1 11.6 5 2.9 4.3 2.4 10.1-1 14L185 444.4l4.8 28.2c.9 5.4-2.399 10.6-7.6 12.5-6.2 2.4-10.598-3.4-16.598-5h-.002c-3.1-2.9-22.2-35.9-22.2-35.9l-34.9 28.8c-3.7 2.3-8.5 2.3-12.2 0-3.7-2.3-6-6.4-6-10.8v-80.6c0-6 4.4-11 10.2-10.9zm295 0c5.8-.1 10.2 4.9 10.2 10.9v80.6c0 4.4-2.3 8.5-6 10.8-3.7 2.3-8.5 2.3-12.2 0l-34.9-28.8s-19.1 33-22.2 35.9c-6 1.6-10.4 7.4-16.6 5-5.2-1.9-8.5-7.1-7.6-12.5l4.8-28.2-41.7-53.8c-3.4-3.9-3.9-9.7-1-14 2.4-3.9 7.1-6.1 11.6-5l87.4 13.1 8.2-12.6 12-1.4z" fill="#c69c6d"/>
</svg> 