<svg xmlns="http://www.w3.org/2000/svg" viewBox="0 0 512 512">
<path d="M255.99 76.8c-28.672 0-53.504 11.64-72.608 29.992-15.584 14.96-28.16 34.048-35.792 54.4-9.824 26.144-12.992 53.712-12.992 70.608 0 1.536.096 2.416.096 3.04 1.728 34.368 15.36 65.568 32.8 88.96 17.504 23.392 38.496 39.232 38.496 39.232l-3.968-2.656c.96.64 1.632 1.28 2.56 1.92 8.768 6.592 16.448 11.84 16.448 11.84s-2.016-1.44-4.992-3.52l.224.16S293.87 443.072 359.99 465.6c-24.8-33.888-36.416-65.184-36.416-65.184s21.472 12.608 42.88 19.296c-16.576-20.544-18.56-64.16-18.56-64.16s4.544 8.896 18.88 29.44c9.024 12.96 22.144 30.72 41.824 51.104 17.44-66.304-54.944-158.56-64.608-176 0 0 21.76-22.4 39.264-45.792 17.472-23.424 31.072-54.592 32.8-88.992 0-.608.064-1.536.064-3.04 0-16.896-3.168-44.448-12.992-70.608-7.616-20.48-20.32-39.552-35.936-54.496C309.494 88.424 284.67 76.8 255.99 76.8zm0 32c19.744 0 36.576 7.584 49.824 20.224 13.248 12.608 22.944 29.728 28.8 46.304 8.512 22.688 10.784 46.112 10.784 54.304 0 .8-.032.608-.032.8-.992 19.68-9.312 40.864-21.44 58.08-9.44 13.408-20.384 24.576-28.16 32.48-3.84 3.968-7.104 7.136-9.28 9.28-1.12 1.088-1.968 1.952-2.528 2.464-.288.256-.448.448-.544.544l-.224.224-.096.096-.032.032v.032c-1.952 2.048-4.672 3.232-7.552 3.232-2.816 0-5.568-1.152-7.488-3.2l-.032-.032-.032-.032-.064-.064-.16-.16c-.096-.096-.224-.224-.416-.416-.384-.384-.928-.928-1.632-1.6-1.408-1.344-3.488-3.392-6.144-6.048-5.312-5.312-12.96-13.44-20.832-24-10.112-13.536-19.776-32.096-19.776-47.104 0-13.92 4.832-26.496 12.8-35.616 7.968-9.088 19.328-14.784 32-14.784 20.928 0 36.448 17.536 41.28 33.952 4.16-16.096 19.456-33.92 40.448-33.92 12.704 0 24.032 5.664 32 14.784 7.968 9.088 12.8 21.696 12.8 35.584 0 15.04-9.664 33.6-19.744 47.136-7.904 10.56-15.52 18.688-20.832 24-2.656 2.624-4.736 4.704-6.144 6.048-.704.672-1.248 1.216-1.632 1.6-.192.192-.352.32-.416.416l-.16.16-.096.064-.032.032-.032.032c-1.92 2.048-4.672 3.2-7.488 3.2-2.88 0-5.6-1.184-7.552-3.232v-.032l-.032-.032-.096-.096-.224-.224c-.096-.096-.256-.288-.544-.544-.576-.512-1.408-1.344-2.528-2.464-2.208-2.144-5.44-5.312-9.28-9.28-7.776-7.904-18.72-19.072-28.16-32.48-12.128-17.216-20.448-38.4-21.44-58.08 0-.192-.032 0-.032-.8 0-8.192 2.272-31.616 10.784-54.304 5.856-16.576 15.552-33.696 28.8-46.304C219.414 116.384 236.246 108.8 255.99 108.8z" fill="#ca3c3c"/>
</svg> 