<svg xmlns="http://www.w3.org/2000/svg" viewBox="0 0 512 512">
<path d="M256.93 31.856c-45.075 0-80.333 24.425-96.098 59.516-15.77 35.09-9.57 79.703 18.61 118.768 11.33 15.65 25.63 30.212 41.418 43.29-8.535-3.55-17.37-6.287-24.374-5.91-28.11 1.552-42.19 29.1-42.19 63.066 0 33.964 14.08 76.503 42.19 91.2 18.742 9.763 45.23 6.468 64.444-2.56V453c-23.515 5.375-49.417 11.284-58.53 13.383-2.635.607-3.714 2.517-3.714 4.504 0 1.987 1.08 3.862 3.715 4.47l116.618 26.787c2.636.61 5.39.61 8.023 0l116.62-26.787c2.636-.608 3.714-2.483 3.714-4.47 0-1.987-1.078-3.897-3.714-4.504-9.113-2.1-35.016-8.008-58.53-13.382v-53.764c19.213 9.028 45.702 12.323 64.444 2.56 28.11-14.697 42.19-57.236 42.19-91.2 0-33.966-14.08-61.514-42.19-63.066-7.005-.377-15.84 2.36-24.374 5.91 15.787-13.078 30.086-27.64 41.418-43.29 28.182-39.066 34.38-83.677 18.61-118.768-15.764-35.09-51.022-59.516-96.098-59.516-45.075 0-80.333 24.425-96.098 59.516-8.53 18.986-9.826 41.143-3.86 63.574-.002-.63.003-.128.002-.192 6.54-19.3 21.037-35.58 44.652-48.2 37.8-20.192 87.72-21.143 118.857 1.532 31.137 22.675 38.79 62.03 25.174 92.55-8.1 18.15-24.673 33.36-42.537 44.73-35.72 22.737-78.628 34.07-95.067 33.59-16.44-.478-16.48-5.92.053-10.89 33.067-9.94 83.842-29.942 108.39-64.81 14.89-21.18 21.162-62.578-39.566-60.976V31.856zm.002 344c-2.636 0-5.27.633-7.906 1.9-7.905 3.796-15.81 17.283-15.81 38.01 0 13.58 1.998 26.095 5.27 36.133 2.635-1.267 8.85-3.8 18.445-3.8 9.596 0 15.81 2.533 18.445 3.8 3.272-10.04 5.27-22.554 5.27-36.134 0-20.727-7.904-34.214-15.81-38.01-2.634-1.267-5.27-1.9-7.905-1.9z" fill="#2e2e2e"/>
</svg> 